<?xml version="1.0" encoding="utf-8"?>
<!-- Generator: Adobe Illustrator 16.0.0, SVG Export Plug-In . SVG Version: 6.00 Build 0)  -->
<!DOCTYPE svg PUBLIC "-//W3C//DTD SVG 1.1//EN" "http://www.w3.org/Graphics/SVG/1.1/DTD/svg11.dtd">
<svg version="1.1" id="Layer_1" xmlns="http://www.w3.org/2000/svg" xmlns:xlink="http://www.w3.org/1999/xlink" x="0px" y="0px"
	 width="800px" height="1200px" viewBox="0 0 800 1200" enable-background="new 0 0 800 1200" xml:space="preserve">
<g>
	<g>
		<path fill="#B1B392" d="M475.911,735.625l0.231,0.777c-0.311,0.889-0.613,1.783-0.91,2.685c0.164-0.835,0.327-1.668,0.489-2.498
			C475.785,736.269,475.848,735.946,475.911,735.625 M362.205,771.961l1.514,0.394c-1.184,3.623-2.428,7.311-3.733,11.067
			c0.279-1.438,0.555-2.871,0.831-4.299C361.272,776.754,361.733,774.362,362.205,771.961 M691.017,773.531l0.349,0.071
			c-0.124,0.186-0.248,0.373-0.371,0.559c0.004-0.114,0.008-0.229,0.012-0.342C691.01,773.723,691.013,773.627,691.017,773.531
			 M581.226,773.589c0.188,0.378,0.416,0.752,0.694,1.116c-0.235,0.487-0.426,0.971-0.577,1.451
			C581.299,775.342,581.257,774.479,581.226,773.589 M467.449,773.608c-0.235,1.605-0.463,3.248-0.684,4.924l0.036-2.684
			C467.021,775.103,467.236,774.357,467.449,773.608 M580.872,780.107c0.009,0.158,0.021,0.317,0.034,0.475l-0.111-0.272
			C580.821,780.242,580.848,780.175,580.872,780.107 M541.104,789.267c0.051,0.074,0.104,0.147,0.16,0.221
			c-0.074,0.108-0.146,0.217-0.218,0.325c0.017-0.151,0.032-0.301,0.048-0.449C541.098,789.332,541.101,789.299,541.104,789.267
			 M352.958,814.354c-0.256,1.737-0.503,3.468-0.749,5.19c-0.094,0.66-0.189,1.321-0.284,1.981l-0.3-2.632
			c0.289-0.969,0.578-1.945,0.867-2.93C352.649,815.429,352.804,814.893,352.958,814.354 M493.152,670.116
			c-1.39,0-2.266,1.504-3.043,2.584c-1.732,2.408-2.825,5.176-3.817,7.968c-4.129,11.621-6.913,23.604-9.517,35.631
			c-3.2,14.785-5.747,29.723-9.112,44.455c-3.616,15.825-9.054,31.193-14.659,46.451c-0.849,2.31-1.195,4.914-3.094,6.874
			c-1.984-2.941-3.798-4.326-6.02-4.326c-1.366,0-2.886,0.524-4.694,1.533c-2.612,1.456-4.758,3.455-6.673,5.756
			c-5.032,6.049-8.543,12.917-11.064,20.313c-0.608,1.787-1.401,3.391-2.651,4.801c-10.14,11.447-20.692,22.49-32.362,32.398
			c-6.296,5.346-12.785,10.501-20.931,12.846c-1.497,0.431-2.839,0.649-4.039,0.649c-3.913,0-6.307-2.326-7.59-7.207
			c-2.023-7.694-2.384-15.572-2.005-23.466c0.549-11.434,1.202-22.872,2.839-34.208c1.826-12.647,3.402-25.319,7.668-37.525
			c5.972-17.083,11.271-34.396,15.391-52.038c1.34-5.742,2.87-11.478,2.856-17.451c-0.003-1.261-0.06-2.583-1.474-3.09
			c-0.263-0.095-0.51-0.137-0.743-0.137c-1.002,0-1.752,0.775-2.433,1.514c-1.617,1.755-2.521,3.937-3.389,6.104
			c-3.994,9.975-6.415,20.404-8.99,30.8c-5.234,21.135-7.85,42.844-13.994,63.774c-4.194,14.285-8.817,28.427-14.298,42.43
			c-1.957-3.381-3.726-4.942-6.076-4.942c-1.459,0-3.143,0.602-5.234,1.743c-1.759,0.959-3.227,2.257-4.598,3.678
			c-5.665,5.871-9.376,12.911-12.208,20.474c-0.602,1.607-1.127,3.2-2.423,4.493c-9.337,9.311-18.773,18.51-29.329,26.466
			c-2.953,2.227-5.978,4.398-9.465,5.699c-0.793,0.296-1.66,0.611-2.473,0.611c-0.902,0-1.739-0.388-2.338-1.62
			c-1.374-2.828,1.393-10.543,4.25-11.917c4.469-2.149,8.632-4.8,12.26-8.157c2.796-2.587,5.453-5.419,6.59-9.205
			c0.453-1.509,0.689-3.218-0.605-4.543c-0.685-0.702-1.434-0.935-2.221-0.935c-0.727,0-1.487,0.198-2.261,0.406
			c-2.328,0.625-4.41,1.742-6.086,3.368c-7.903,7.664-13.304,16.77-14.973,27.768c-0.726,4.786,1.279,7.528,4.904,7.528
			c1.122,0,2.399-0.263,3.799-0.81c1.14-0.445,2.25-1.005,3.301-1.634c11.727-7.035,21.412-16.521,31.135-25.963
			c0.882-0.855,1.562-2.079,3.238-2.363c-0.129,0.87-0.211,1.467-0.307,2.062c-0.536,3.345-1.19,7.091,2.068,9.133
			c0.819,0.513,1.613,0.724,2.385,0.724c2.267,0,4.332-1.826,6.211-3.198c6.453-4.713,10.356-11.474,13.984-18.345
			c7.56-14.32,12.983-29.504,17.814-44.919c0.491-1.565,0.675-3.331,2.03-4.778c0.661,1.814,0.292,3.42,0.084,4.941
			c-1.502,11.024-1.545,22.103-1.397,33.192c0.076,5.708,1.083,11.263,2.839,16.677c1.809,5.578,5.281,8.406,10.25,8.406
			c1.164,0,2.41-0.155,3.735-0.467c5.497-1.29,10.266-4.131,14.829-7.292c11.923-8.262,22.063-18.494,31.848-29.104
			c2.587-2.808,5.157-5.634,7.979-8.717c0.453,2.4-0.395,4.167,0.014,6.058c0.678,3.14,1.837,4.667,3.908,4.667
			c0.877,0,1.916-0.273,3.15-0.813c1.451-0.635,2.868-1.468,4.104-2.458c5.083-4.076,8.72-9.348,11.875-14.957
			c7.645-13.586,13.136-28.078,17.873-42.881c1.296-4.054,2.613-8.1,3.921-12.148c-0.099,7.213-0.839,14.29-1.241,21.387
			c-0.662,11.69-1.196,23.404,2.405,34.803c1.926,6.093,5.398,9.134,10.437,9.134c1.685,0,3.545-0.341,5.58-1.021
			c5.424-1.813,10.28-4.713,14.875-8.074c12.3-8.997,22.825-19.87,32.964-31.154c2.814-3.134,5.649-6.248,9-9.951
			c0.251,1.863,0.372,2.802,0.504,3.739c0.821,5.768,2.821,8.619,6.229,8.619c1.813,0,4.023-0.809,6.667-2.414
			c6.461-3.923,12.075-8.907,17.223-14.421c3.38-3.618,6.735-7.258,10.317-11.119c0.388,0.947,0.617,1.38,0.742,1.841
			c1.568,5.787,4.328,8.743,7.861,8.743c2.411,0,5.184-1.379,8.182-4.175c0.716-0.667,1.309-1.468,1.946-2.217
			c4.327-5.085,7.564-10.929,11.386-16.367c2.451-3.486,4.081-5.188,5.895-5.188c1.634,0,3.415,1.381,6.078,4.082
			c2.924,2.966,6.128,4.934,10.026,4.934c1.131,0,2.322-0.166,3.58-0.521c5.347-1.511,9.914-4.29,14.02-7.926
			c3.443-3.052,7.005-5.975,9.979-9.999c1.439,4.412,2.868,6.44,5.04,6.44c1.434,0,3.192-0.886,5.492-2.553
			c2.911-2.11,5.271-4.802,7.531-7.581c4.108-5.049,6.937-10.917,10.758-17.299c1.222,12.882,1.669,24.692,0.926,36.494
			c-0.228,3.58,0.08,7.371-1.996,10.753c-3.8,6.188-7.567,12.406-11.04,18.78c-9.806,18.005-17.713,36.813-23.217,56.586
			c-0.851,3.056-1.557,6.224-0.82,9.466c0.547,2.41,1.442,3.596,2.839,3.596c0.791,0,1.743-0.381,2.884-1.135
			c1.118-0.738,2.164-1.642,3.082-2.62c4.249-4.533,7.424-9.799,10.228-15.303c10.629-20.865,15.657-43.45,20.294-66.151
			c0.683-3.345,1.007-6.641,3.04-9.709c12.599-19.008,26.142-37.303,40.683-54.864c0.808-0.974,2.478-2.157,1.173-3.394
			c-0.373-0.354-0.701-0.496-0.993-0.496c-0.896,0-1.465,1.338-2.025,2.016c-13.268,16.048-25.766,32.677-37.513,49.869
			c-0.431,0.631-0.603,1.715-1.76,1.715c-0.144,0-0.302-0.017-0.478-0.053c0.068-1.575,0.071-3.171,0.219-4.753
			c1.131-12.055,1.068-24.109-0.142-36.148c-0.2-1.996,0.037-4.835-2.091-4.835c-0.637,0-1.486,0.254-2.621,0.861
			c-0.039,0.021-0.088,0.03-0.144,0.03c-0.306,0-0.823-0.286-1.078-0.536c-1.671-1.639-3.329-2.278-4.968-2.278
			c-2.171,0-4.307,1.123-6.39,2.534c-6.854,4.642-10.698,11.673-13.273,19.107c-1.946,5.617-5.06,9.985-9.21,13.905
			c-1.791,1.692-3.51,3.465-5.352,5.101c-2.859,2.541-5.867,4.903-9.426,6.419c-1.995,0.85-3.737,1.288-5.351,1.288
			c-2.729,0-5.089-1.254-7.68-3.89c-1.638-1.666-3.039-3.566-4.706-5.197c-1.491-1.459-2.977-2.175-4.494-2.175
			c-1.419,0-2.864,0.627-4.365,1.86c-1.738,1.429-3.007,3.252-4.197,5.127c-3.498,5.507-6.946,11.046-10.465,16.54
			c-1.405,2.194-3.131,4.146-5.415,5.463c-1.029,0.593-1.952,0.898-2.749,0.898c-1.405,0-2.422-0.949-2.946-2.946
			c-1.024-3.904-3.136-7.904-0.515-12.026c0.38-0.595,0.195-1.231-0.292-1.671c-1.327-1.192-1.443-2.793-1.562-4.392
			c-0.103-1.421-0.028-3.002-1.916-3.002c-0.105,0-0.218,0.005-0.337,0.016c-1.938,0.169-2.792,1.525-2.829,3.289
			c-0.053,2.46,0.049,4.929,0.187,7.389c0.095,1.704-0.413,3.048-1.559,4.349c-5.051,5.738-10.205,11.377-15.896,16.487
			c-3.936,3.535-7.813,7.196-12.738,9.378c-0.965,0.428-2.1,0.887-3.087,0.887c-0.989,0-1.83-0.461-2.202-1.874
			c-1.306-4.968-2.417-10.164,0.948-14.933c0.643-0.909,1.584-1.828,0.33-2.849c-1.48-1.205-0.954-2.673-0.681-4.08
			c0.493-2.536,1.136-5.043,1.646-7.576c0.36-1.793,1.069-3.926-1.635-4.449c-0.305-0.059-0.587-0.087-0.849-0.087
			c-1.901,0-2.707,1.485-2.938,3.494c-0.519,4.521-1.122,9.031-1.6,13.555c-0.336,3.186-0.74,6.146-3.09,8.78
			c-9.6,10.765-19.308,21.408-30.213,30.888c-7.445,6.473-14.917,12.939-24.637,15.893c-1.403,0.427-2.683,0.642-3.841,0.642
			c-3.702,0-6.164-2.196-7.472-6.686c-1.49-5.117-1.903-10.387-1.991-15.706c-0.229-13.947,0.843-27.82,2.576-41.629
			c1.929-15.39,4.737-30.563,10.045-45.285c5.593-15.514,10.075-31.415,13.682-47.529c0.992-4.438,1.692-8.942,2.429-13.433
			c0.282-1.723,0.348-3.777-1.423-4.615C493.806,670.193,493.466,670.116,493.152,670.116L493.152,670.116z M492.567,674.138
			c-2.138,19.018-8.337,36.949-14.084,55.002C482.095,710.519,484.795,691.666,492.567,674.138L492.567,674.138z M377.86,716.451
			c-2.06,19.257-8.554,37.382-14.321,55.698C367.407,753.354,369.708,734.142,377.86,716.451L377.86,716.451z M665.844,743.42
			c-0.128-0.091-0.256-0.18-0.383-0.271c0.188-0.247,0.375-0.496,0.563-0.744c0.182-0.309,0.364-0.618,0.546-0.927
			c2.321-5.153,5.682-9.27,10.66-12.238c0.979-0.583,1.851-0.811,2.654-0.811c2.111,0,3.754,1.571,5.635,2.403
			c0.854,0.378,0.104,1.32-0.178,1.933c-4.241,9.188-9.037,17.995-17.272,24.341c-1.214,0.937-2.595,2.497-4.013,2.497
			c-0.536,0-1.077-0.223-1.616-0.787c-1.789-1.872-1.33-4.953,0.209-7.21c1.582-2.32,3.592-4.346,5.343-6.558
			c1.174-1.483,1.753-2.913-1.032-3.18c-0.282,0.209-0.565,0.417-0.85,0.625C666.022,742.805,665.933,743.112,665.844,743.42
			L665.844,743.42z M477.837,731.58c-0.027-0.092-0.086-0.188-0.076-0.275c0.01-0.086,0.091-0.161,0.142-0.243
			c0.028,0.093,0.057,0.185,0.085,0.277C477.938,731.419,477.888,731.5,477.837,731.58L477.837,731.58z M685.294,788.666
			c-4.095,23.432-8.248,46.83-20.414,67.742c-2.11,3.626-4.545,7.036-7.645,9.913c-0.615,0.571-1.281,1.201-2.102,1.201
			c-0.258,0-0.53-0.063-0.82-0.207c-1.084-0.542-0.803-1.705-0.837-2.649c-0.193-5.411,1.534-10.46,3.276-15.431
			c7.018-20.025,15.687-39.306,26.544-57.568C683.91,790.636,684.626,789.665,685.294,788.666L685.294,788.666z M424.189,853.622
			c-0.387,0-0.784-0.095-1.191-0.324c-1.6-0.905-0.851-2.653-1.021-3.472c0.15-6.233,2.146-11.071,6.232-15.081
			c1.135-1.114,3.405-2.452,0.4-4.236c-1.084-0.644-0.05-1.578,0.297-2.224c2.288-4.262,5.097-8.146,8.907-11.182
			c1.132-0.902,2.496-1.583,3.85-2.127c0.547-0.22,1.062-0.314,1.551-0.314c2.007,0,3.571,1.592,5.06,2.65
			c1.35,0.959-0.289,2.68-0.83,3.961c-3.796,8.972-8.225,17.597-14.146,25.392c-1.734,2.283-3.761,4.236-6.198,5.725
			C426.201,852.938,425.232,853.622,424.189,853.622L424.189,853.622z M349.073,827.125c-0.072-0.333-0.194-0.667-0.191-0.999
			c0.001-0.156,0.243-0.312,0.482-0.593c0.054,0.465,0.142,0.811,0.109,1.145C349.458,826.838,349.214,826.976,349.073,827.125
			L349.073,827.125z M309.089,896.792c-0.316,0-0.639-0.086-0.97-0.297c-1.362-0.868-1.347-2.514-1.341-3.579
			c0.797-6.067,1.639-11.623,6.521-15.557c1.205-0.972,3.461-2.422,0.425-4.168c-0.607-0.35-0.244-1.111,0.055-1.657
			c2.983-5.439,6.392-10.405,12.064-13.556c0.831-0.462,1.561-0.648,2.221-0.648c2.137,0,3.536,1.96,5.174,2.925
			c1.736,1.022-0.148,2.806-0.692,4.101c-3.718,8.857-8.136,17.337-13.931,25.049c-1.874,2.491-4.068,4.616-6.8,6.108
			C310.963,895.978,310.062,896.792,309.089,896.792L309.089,896.792z M266.041,898.422c2.47-5.803,6.481-10.232,11.969-13.317
			c0.512-0.288,1.125-0.686,1.699-0.686c0.337,0,0.661,0.137,0.944,0.513c0.56,0.742-0.129,1.646-0.598,2.354
			C276.589,892.511,272.009,896.346,266.041,898.422c-0.007,0.018-0.015,0.034-0.022,0.052c-0.026,0.009-0.053,0.017-0.08,0.023
			c-0.076,0.092-0.151,0.184-0.227,0.275c0.013-0.069,0-0.168,0.042-0.199c0.051-0.04,0.118-0.058,0.186-0.076
			c0.016-0.019,0.031-0.037,0.046-0.056C266.003,898.435,266.022,898.429,266.041,898.422L266.041,898.422z"/>
	</g>
	<g>
		<path fill="#B1B392" d="M338.853,177.53l0.954,0.206c-0.671,2.031-1.357,4.035-2.06,6.016c0.008-0.045,0.016-0.091,0.024-0.137
			C338.136,181.543,338.495,179.517,338.853,177.53 M519.076,192.356c-0.064,0.739-0.128,1.478-0.191,2.216v-1.835
			C518.954,192.61,519.018,192.483,519.076,192.356 M331.992,210.481c-0.189,1.62-0.363,3.246-0.526,4.877l-0.684-1.581
			C331.187,212.685,331.589,211.587,331.992,210.481 M449.204,224.048c-0.193,1.046-0.345,2.091-0.456,3.139
			c-0.3-0.337-0.664-0.642-1.107-0.896C448.218,225.552,448.737,224.806,449.204,224.048 M687.297,118.682
			c-0.761,0-1.202,1.041-1.688,1.605c-8.122,9.443-16.693,18.461-25.839,26.911c-4.604,4.255-9.266,8.517-15.051,11.209
			c-0.816,0.38-1.691,0.8-2.507,0.8c-0.738,0-1.427-0.344-1.976-1.374c-1.578-2.956,0.664-9.625,3.745-11.291
			c6.052-3.27,11.407-7.37,15.061-13.287c1.319-2.136,2.972-4.823,0.799-7.146c-0.796-0.852-1.625-1.168-2.46-1.168
			c-1.558,0-3.137,1.101-4.57,1.88c-1.378,0.751-2.604,1.861-3.733,2.976c-3.187,3.144-5.93,6.751-7.537,10.863
			c-2.318,5.93-6.737,9.956-11.328,13.824c-4.897,4.125-8.473,6.15-12.108,6.15c-3.496,0-7.049-1.873-11.886-5.552
			c-1.717-1.306-3.266-1.972-4.737-1.972c-1.792,0-3.469,0.986-5.194,3.003c-2.33,2.726-3.931,5.942-5.71,9.04
			c-2.812,4.895-5.037,10.187-9.224,14.185c-1.761,1.682-3.222,2.533-4.42,2.533c-1.614,0-2.751-1.548-3.495-4.699
			c-1.131-4.783-1.753-9.689-2.946-14.456c-0.98-3.924-3.095-5.94-5.845-5.94c-1.588,0-3.388,0.673-5.303,2.039
			c-3.55,2.532-5.459,6.294-7.226,10.093c-5.559,11.953-9.683,24.486-14.718,36.653c-2.778,6.716-5.576,13.431-9.924,19.332
			c-0.833,1.129-1.83,2.43-3.337,2.43c-0.177,0-0.361-0.018-0.554-0.057c-1.94-0.389-2.138-2.37-2.316-3.847
			c-0.514-4.27-1.151-8.549-0.771-12.882c0.873-9.961,1.758-19.921,2.566-29.888c0.145-1.777,0.541-4.191-1.971-4.458
			c-0.132-0.014-0.258-0.021-0.381-0.021c-2.105,0-2.928,2.005-3.175,3.955c-0.372,2.927-0.583,5.878-0.774,8.824
			c-0.089,1.392-0.223,2.563-1.573,3.475c-12.69,8.573-26.177,15.682-40.108,21.988c-0.444,0.201-0.8,0.306-1.109,0.306
			c-0.566,0-0.979-0.352-1.504-1.106c-2.046-2.942-4.689-4.401-7.308-4.401c-2.673,0-5.321,1.522-7.279,4.54
			c-1.111,1.715-1.96,3.521-0.845,5.516c1.069,1.912,2.796,2.63,4.894,2.63c0.139,0,0.279-0.003,0.421-0.009
			c2.397-0.104,4.581-0.91,6.723-1.854c0.563-0.249,1.046-0.399,1.438-0.399c0.721,0,1.135,0.511,1.187,1.861
			c0.245,6.405-1.072,12.269-5.813,16.926c-2.186,2.148-4.805,3.79-7.618,3.79c-0.895,0-1.809-0.166-2.734-0.534
			c-3.568-1.42-3.888-5.396-3.998-8.888c-0.294-9.374,2.898-17.729,7.688-25.593c0.744-1.221,2.091-2.539,0.491-3.884
			c-0.512-0.43-0.999-0.603-1.464-0.603c-1.014,0-1.917,0.825-2.714,1.597c-3.475,3.363-5.603,7.608-6.537,12.208
			c-0.83,4.081-2.82,7.193-5.591,10.068c-9.315,9.668-18.368,19.628-29.725,27.032c-1.386,0.904-3.07,2.359-4.671,2.359
			c-0.649,0-1.285-0.24-1.881-0.853c-1.901-1.957-1.045-5.126,0.035-7.694c0.476-1.127,1.119-2.201,1.797-3.225
			c2.107-3.184,4.27-6.329,6.406-9.492c0.534-0.792,1.255-1.397,1.377-2.516c0.311-2.855,3.395-5.21,6.19-5.21
			c0.744,0,1.469,0.167,2.114,0.537c0.759,0.434,1.387,0.705,1.945,0.705c0.635,0,1.178-0.35,1.718-1.209
			c1.133-1.8,0.192-3.054-1.219-4.064c-1.151-0.822-2.321-1.166-3.502-1.166c-1.271,0-2.555,0.399-3.836,1.027
			c-4.649,2.282-7.268,6.48-10.067,10.545c-3.264,4.736-4.224,10.523-7.015,15.409c-9.594,16.788-18.543,33.92-27.691,50.947
			c-6.177,11.498-12.548,22.901-20.653,33.204c-4.201,5.34-8.555,10.578-15.08,13.253c-1.35,0.553-2.496,0.838-3.497,0.838
			c-2.126,0-3.593-1.286-4.946-4.011c-1.209-2.436-2.038-5.009-2.467-7.709c-1.321-8.305-1.433-16.625-0.935-25.022
			c0.628-10.57,0.468-21.19,1.238-31.746c1.405-19.266,3.184-38.505,4.92-57.745c1.095-12.127,2.396-24.176,6.536-35.824
			c4.035-11.358,7.357-22.978,10.189-34.711c1.298-5.378,2.597-10.781,2.5-16.381c-0.028-1.62-0.007-3.515-1.941-3.944
			c-0.202-0.044-0.395-0.066-0.58-0.066c-1.458,0-2.413,1.303-3.158,2.554c-1.394,2.34-2.338,4.879-3.14,7.475
			c-4.365,14.143-6.998,28.669-9.557,43.211c-1.256,7.138-1.455,14.641-3.847,21.368c-9.452,26.577-20.364,52.573-34.167,77.243
			c-5.234,9.355-10.808,18.526-18.604,26.071c-2.489,2.409-5.179,4.612-8.532,5.694c-0.626,0.202-1.252,0.343-1.832,0.343
			c-1.143,0-2.101-0.549-2.512-2.254c-0.826-3.426,1.581-8.832,4.73-10.581c3.132-1.739,6.113-3.735,8.75-6.145
			c3.191-2.917,6.212-6.073,7.236-10.475c0.664-2.854-0.488-4.499-2.823-4.499c-0.518,0-1.095,0.081-1.722,0.248
			c-2.585,0.688-4.682,2.177-6.495,4.064c-6.583,6.851-10.71,14.968-12.309,24.335c-0.203,1.187-0.181,2.479,0.053,3.66
			c0.608,3.063,2.064,4.608,4.334,4.608c0.861,0,1.841-0.223,2.935-0.669c3.689-1.506,6.892-3.792,9.751-6.561
			c6.796-6.582,11.846-14.484,16.654-22.509c12.062-20.132,21.367-41.594,30.099-63.32c0.466-1.16,0.547-2.637,2.59-3.322
			c-0.129,1.992-0.19,3.672-0.352,5.343c-0.937,9.675-1.932,19.344-2.838,29.023c-1.09,11.641-1.936,23.299-2.444,34.984
			c-0.562,12.91-1.602,25.822-0.284,38.729c0.523,5.119,1.031,10.293,3.341,15.065c2.206,4.559,4.985,6.804,8.627,6.804
			c1.82,0,3.857-0.562,6.145-1.675c2.793-1.36,5.275-3.143,7.513-5.3c4.909-4.727,8.893-10.201,12.809-15.729
			c11.505-16.242,20.002-34.201,29.463-51.611c3.911-7.197,7.863-14.372,11.919-21.781c1.94,3.039,3.259,4.389,5.105,4.389
			c1.124,0,2.443-0.5,4.217-1.424c2.606-1.357,5.076-3.033,7.436-4.793c7.934-5.917,14.692-13.109,21.63-20.109
			c1.245-1.256,2.417-3.673,3.882-3.673c0.131,0,0.265,0.02,0.401,0.061c2.087,0.636,1.206,3.622,1.505,5.567
			c1.068,6.961,5,10.835,9.999,10.835c2.636,0,5.567-1.077,8.532-3.345c1.35-1.032,2.531-2.355,3.563-3.716
			c3.868-5.098,5.725-10.879,5.212-17.28c-0.171-2.13,0.306-3.352,2.402-4.246c8.049-3.439,15.676-7.732,23.299-12.012
			c5.215-2.927,10.34-6.018,15.697-9.148c0,5.238,0.017,10.131-0.005,15.023c-0.024,5.551-0.099,11.119,1.776,16.446
			c1.162,3.301,3.07,5.007,5.287,5.007c1.594,0,3.348-0.881,5.098-2.686c3.126-3.221,5.064-7.25,6.951-11.267
			c5.138-10.935,8.86-22.436,13.459-33.586c2.81-6.814,4.827-14.017,9.147-20.116c1.218-1.72,2.662-4.17,4.806-4.17
			c0.15,0,0.305,0.012,0.463,0.038c2.69,0.434,2.331,3.666,2.964,5.828c0.275,0.937,0.32,1.938,0.508,2.904
			c0.795,4.092,1.039,8.318,3.114,12.091c1.505,2.736,3.615,4.177,6.086,4.177c1.215,0,2.517-0.349,3.877-1.062
			c2.08-1.091,3.969-2.498,5.314-4.491c2.341-3.466,4.676-6.938,6.987-10.425c1.834-2.767,3.425-5.726,5.493-8.301
			c1.487-1.851,2.7-2.723,4.053-2.723c1.17,0,2.445,0.652,4.092,1.886c1.874,1.405,3.736,2.79,6.053,3.45
			c1.355,0.386,2.654,0.557,3.908,0.557c4.926,0,9.149-2.635,13.324-5.189c2.87-1.757,5.375-4.113,8.522-6.573
			c0,1.767-0.032,2.948,0.006,4.126c0.12,3.68,1.761,5.709,4.447,5.709c0.94,0,2.01-0.249,3.187-0.763
			c1.903-0.831,3.733-1.922,5.421-3.138c14.206-10.233,25.743-23.219,37.188-36.288c0.61-0.698,2.08-1.638,0.74-2.749
			C687.825,118.792,687.544,118.682,687.297,118.682L687.297,118.682z M646.596,141.801c-0.086,0-0.184-0.063-0.3-0.225
			c-0.019-0.026,0.274-0.275,0.422-0.421c2.648-2.53,2.608-6.67,5.423-9.081c0.736-0.631,1.608-1.128,2.478-1.569
			c0.433-0.219,0.934-0.464,1.4-0.464c0.339,0,0.66,0.13,0.925,0.494c0.472,0.646-0.049,1.388-0.455,2.012
			c-2.438,3.739-5.348,6.974-9.504,8.873C646.867,141.599,646.751,141.801,646.596,141.801L646.596,141.801z M350.313,133.375
			c-0.688,15.389-5.771,29.701-10.183,44.175C342.088,162.482,344.215,147.454,350.313,133.375L350.313,133.375z M462.063,219.332
			c-1.002-0.098-2.098-0.316-2.717-1.383c-0.588-1.011-0.022-1.911,0.499-2.74c1.379-2.189,3.502-3.297,5.531-3.297
			c1.844,0,3.61,0.915,4.672,2.765c0.627,1.092,0.665,1.672-0.54,2.283C467.184,218.138,464.727,218.841,462.063,219.332
			L462.063,219.332z M329.033,218.546c-0.024-0.207-0.077-0.414-0.062-0.619c0.006-0.09,0.147-0.17,0.228-0.254
			c0.086,0.199,0.172,0.397,0.258,0.594C329.308,218.366,329.171,218.457,329.033,218.546L329.033,218.546z M269.361,298.108
			c2.407-5.141,5.479-9.734,10.485-12.706c0.567-0.336,1.229-0.777,1.841-0.777c0.292,0,0.572,0.1,0.826,0.359
			c0.866,0.885-0.208,1.796-0.668,2.558C278.904,292.418,274.392,295.519,269.361,298.108L269.361,298.108z"/>
	</g>
	<g>
		<path fill="#B1B392" d="M462.95,944.917l1.498,0.382c-0.477,1.398-0.964,2.805-1.461,4.22c-0.803,2.282-1.564,4.587-2.288,6.92
			c0.226-1.155,0.449-2.307,0.673-3.456C461.89,950.315,462.413,947.622,462.95,944.917 M586.789,981.806
			c0.106,0.43,0.255,0.864,0.457,1.303c-0.219,0.325-0.416,0.649-0.594,0.974C586.684,983.296,586.728,982.538,586.789,981.806
			 M453.42,988.748c-0.327,2.179-0.63,4.385-0.908,6.623c-0.109,0.878-0.22,1.774-0.329,2.688c-0.022-0.04-0.046-0.08-0.069-0.12
			l-0.953-1.62C451.963,993.81,452.714,991.283,453.42,988.748 M545.36,998.385c-0.054,0.314-0.108,0.628-0.162,0.941
			c-0.002,0.011-0.004,0.021-0.006,0.032c-0.334-0.309-0.676-0.518-0.927-0.647C544.589,998.665,544.965,998.569,545.36,998.385
			 M628.688,1017.764l0.194,0.374c-0.062,0.145-0.123,0.29-0.182,0.435C628.697,1018.303,628.693,1018.033,628.688,1017.764
			 M479.16,886.033c-1.128,0-1.976,0.982-2.684,1.91c-1.891,2.479-3.077,5.327-4.131,8.22c-3.416,9.382-5.754,19.067-8.122,28.752
			c-5.981,24.475-8.801,49.67-16.965,73.652c-3.638,10.691-6.938,21.498-11.312,32.188c-1.811-3.467-3.648-5.082-6.055-5.082
			c-1.328,0-2.831,0.492-4.596,1.438c-2.077,1.112-3.953,2.518-5.509,4.295c-8.599,9.833-13.669,21.256-15.079,34.231
			c-0.263,2.415-0.026,5.104,2.436,6.566c0.664,0.395,1.313,0.554,1.948,0.554c1.521,0,2.95-0.913,4.268-1.674
			c5.494-3.175,9.238-8.09,12.435-13.396c9.988-16.582,16.428-34.658,22.075-53.057c0.532-1.729,1.104-3.446,1.658-5.17
			c0.622,1.057,0.617,1.912,0.498,2.752c-1.781,12.59-2.443,25.249-1.921,37.941c0.249,6.021,1.044,12.03,3.455,17.663
			c1.918,4.48,5.386,6.923,9.741,6.923c1.001,0,2.05-0.13,3.137-0.393c2.136-0.517,4.23-1.326,6.237-2.238
			c9.21-4.189,16.794-10.684,24.169-17.418c7.638-6.975,14.633-14.6,21.743-22.102c0.133-0.136,0.359-0.401,0.394-0.401
			c0.001,0,0.002,0.001,0.003,0.001c0.37,0.27,0.177,0.499-0.087,0.711c-0.055,1.603-0.124,3.199-0.165,4.8
			c-0.055,2.148,0.037,4.34,2.156,5.541c0.714,0.405,1.408,0.572,2.085,0.572c1.453,0,2.823-0.769,4.12-1.599
			c3.79-2.42,6.847-5.657,9.457-9.25c2.941-4.049,5.604-8.3,8.615-12.804c0.199,1.176,0.309,1.981,0.476,2.773
			c0.966,4.567,2.922,6.839,5.992,6.839c1.411,0,3.058-0.479,4.951-1.438c1.965-0.995,3.84-2.216,5.618-3.52
			c7.693-5.642,14.202-12.528,20.523-19.617c1.418-1.591,2.203-2.42,2.795-2.42c0.673,0,1.096,1.074,1.918,3.321
			c1.818,4.973,4.624,7.537,8.198,7.537c1.105,0,2.284-0.245,3.53-0.74c2.578-1.025,4.644-2.788,6.336-4.95
			c2.43-3.105,4.563-6.406,6.563-9.815c3.34-5.689,5.768-11.852,9.17-18.515c0.619,3.271,1.092,5.548,1.474,7.84
			c2.413,14.44,5.12,28.845,4.996,43.583c-0.021,2.535-0.551,4.79-1.745,7.045c-10.184,19.212-18.093,39.34-23.831,60.303
			c-2.103,7.683-4.6,15.354-3.619,23.535c0.209,1.741,0.438,3.634,2.289,4.32c0.387,0.144,0.755,0.207,1.104,0.207
			c1.489,0,2.669-1.149,3.72-2.203c4.684-4.699,7.903-10.396,10.461-16.417c8.117-19.11,11.321-39.424,14.126-59.795
			c1.117-8.117,0.868-16.491,6.217-23.506c1.63-2.137,2.745-4.662,4.131-6.989c10.769-18.102,22.493-35.59,34.123-53.14
			c0.647-0.978,2.46-2.196,0.729-3.39c-0.311-0.214-0.574-0.304-0.804-0.304c-0.921,0-1.27,1.455-1.743,2.123
			c-11.338,15.965-22.165,32.265-32.1,49.147c-2.584,4.393-5.173,8.78-7.916,13.437c-1.081-2.076-0.963-3.816-1.013-5.525
			c-0.438-15.179-3.162-30.077-5.587-45.008c-0.238-1.462-0.245-3.503-2.484-3.54c-0.021,0-0.04-0.001-0.06-0.001
			c-1.87,0-2.455,1.498-3.104,3.063c-4.102,9.896-8.254,19.778-14.515,28.576c-2.002,2.813-4.109,5.559-7.416,7.004
			c-0.98,0.429-1.903,0.657-2.741,0.657c-1.722,0-3.081-0.967-3.822-3.141c-1.491-4.381-3.359-8.874,0.042-13.29
			c0.401-0.522,0.56-1.134,0.181-1.713c-1.505-2.294-0.419-4.502,0.177-6.728c0.448-1.674,1.235-3.617-1.089-4.368
			c-0.363-0.118-0.696-0.172-1-0.172c-1.597,0-2.432,1.482-3.033,2.997c-1.386,3.485-1.667,7.195-1.768,10.871
			c-0.058,2.132-0.749,3.676-2.096,5.272c-5.733,6.799-12.159,12.911-18.59,19.018c-2.592,2.462-5.521,4.534-8.767,6.093
			c-1.623,0.779-2.889,1.194-3.875,1.194c-1.915,0-2.777-1.564-3.161-5.063c-0.225-2.054-0.034-4.181,0.19-6.249
			c0.277-2.566,0.781-5.107,1.197-7.656c0.212-1.292,1.019-2.775-0.604-3.631c-0.367-0.193-0.729-0.282-1.075-0.282
			c-0.835,0-1.586,0.514-2.138,1.306c-0.331,0.474-0.642,0.649-0.961,0.649c-0.366,0-0.744-0.229-1.177-0.505
			c-1.049-0.667-2.1-0.935-3.143-0.935c-1.436,0-2.858,0.508-4.24,1.179c-4.573,2.222-7.746,5.905-10.574,10.044
			c-2.506,3.666-3.742,8.025-6.686,11.439c-9.99,11.592-20.74,22.416-32.515,32.195c-5.896,4.897-12.133,9.291-19.638,11.461
			c-1.266,0.366-2.431,0.55-3.496,0.55c-3.586,0-6.038-2.082-7.362-6.302c-1.033-3.29-1.713-6.676-1.898-10.135
			c-0.884-16.419,0.454-32.738,2.479-48.999c1.92-15.407,5.146-30.486,10.329-45.229c5.711-16.244,10.545-32.81,13.998-49.722
			c0.738-3.61,1.268-7.27,1.722-10.928c0.184-1.467-0.055-3.186-1.718-3.723C479.59,886.067,479.37,886.033,479.16,886.033
			L479.16,886.033z M478.425,889.927c-1.928,19.089-8.386,37.037-14.074,55.18C468.039,926.461,470.584,907.526,478.425,889.927
			L478.425,889.927z M521.433,1030.735c-0.229,0-0.466-0.028-0.714-0.092c-1.05-0.271-1.27-1.316-1.169-4.318
			c0.226-7.213,3.918-12.706,8.671-17.721c1.207-1.273,2.137-2.588,2.587-4.604c0.65-2.917,3.951-3.725,6.517-4.814
			c0.422-0.18,0.811-0.256,1.173-0.256c1.729,0,2.876,1.745,4.361,2.433c0.953,0.44,0.41,1.526,0.066,2.301
			c-4.33,9.734-9.549,18.841-18.248,25.438C523.692,1029.849,522.702,1030.735,521.433,1030.735L521.433,1030.735z M409.998,1069.57
			c-0.393,0-0.795-0.091-1.206-0.313c-1.611-0.866-0.66-2.684-1.172-4.345c2.377-11.765,6.248-22.994,15.641-31.545
			c1.293-1.176,2.814-1.963,4.452-2.541c0.482-0.17,0.937-0.244,1.367-0.244c1.969,0,3.455,1.546,4.948,2.504
			c1.503,0.964-0.105,2.695-0.618,3.914c-3.813,9.084-8.305,17.806-14.283,25.694c-1.649,2.176-3.592,4.045-5.916,5.479
			C412.21,1068.792,411.143,1069.57,409.998,1069.57L409.998,1069.57z M624.952,1032.705c-0.103,0.108-0.204,0.217-0.306,0.325
			c-0.002,0.005-0.003,0.011-0.005,0.016c-0.001,0.002-0.003,0.003-0.004,0.005c-0.399,13.535-2.742,26.806-5.49,40.017
			c-2.314,11.124-6.007,21.759-11.511,31.729c-1.431,2.591-2.977,5.104-5.175,7.132c-0.578,0.532-1.136,1.388-1.923,1.388
			c-0.16,0-0.331-0.036-0.513-0.117c-1.104-0.493-1.138-1.761-1.251-2.877c-0.34-3.353,0.151-6.667,0.897-9.877
			c5.357-23.067,13.429-45.167,24.044-66.334c0.204-0.405,0.608-0.71,0.921-1.061c0-0.004,0-0.008,0-0.012
			c0.003-0.003,0.006-0.006,0.009-0.009c0.025-0.094,0.038-0.199,0.092-0.274C624.771,1032.712,624.878,1032.721,624.952,1032.705
			L624.952,1032.705z"/>
	</g>
	<g>
		<path fill="#B1B392" d="M135.854,904.628c0.278,2.585,0.52,5.203,0.754,7.749c0.195,2.122,0.398,4.316,0.62,6.48l0.051,0.492
			c0.503,4.888,1.01,9.809,1.561,14.746c-0.347-2.593-0.671-5.215-0.975-7.872l-0.937-8.222l-1.506,2.287
			c0.102-0.738,0.2-1.478,0.293-2.217c0.317-2.496,0.266-4.968,0.216-7.357c-0.021-1.025-0.042-1.995-0.034-2.967
			c0.004-0.619-0.009-1.238-0.023-1.858C135.866,905.459,135.856,905.038,135.854,904.628 M232.124,786.985
			c-0.022,0-0.044,0-0.067,0.001c-1.634,0.042-1.263,1.79-1.336,2.959c-0.039,0.612,0.03,1.231,0.062,1.847
			c0.391,7.495,0.961,14.985,1.144,22.485c0.607,24.885-0.12,49.736-1.946,74.565c-1.682,22.855-4.54,45.531-9.818,67.851
			c-4.129,17.453-9.543,34.419-20.235,49.177c-3.651,5.039-8.02,9.332-13.685,12.138c-3.399,1.684-6.506,2.531-9.398,2.531
			c-4.991,0-9.339-2.527-13.431-7.651c-4.526-5.667-7.525-12.126-9.802-18.927c-8.19-24.47-10.776-49.947-13.398-75.411
			c-0.541-5.263-0.946-10.54-1.548-15.795c-0.182-1.582-0.762-3.392-2.729-3.392c-0.011,0-0.021,0-0.032,0
			c-2.074,0.021-2.879,1.691-3.005,3.559c-0.107,1.594,0.012,3.201,0,4.804c-0.024,3.325,0.258,6.691-0.158,9.969
			c-3.688,29.058-13.428,56.155-27.089,81.91c-4.166,7.854-9.26,15.116-15.984,21.099c-4.081,3.63-8.39,5.4-12.438,5.4
			c-5.788,0-11.042-3.621-14.324-10.604c-3.42-7.279-4.279-15.134-4.699-23.013c-0.677-12.707,0.385-25.341,2.154-37.922
			c3.058-21.753,7.954-43.055,15.508-63.721c3.476-9.509,7.647-18.672,12.659-27.467c0.9-1.581,1.752-3.798-0.251-4.935
			c-0.359-0.203-0.707-0.292-1.041-0.292c-1.295,0-2.391,1.325-3.183,2.413c-2.47,3.391-4.511,7.068-6.162,10.913
			c-16.667,38.806-24.448,79.338-23.2,121.55c0.24,8.139,1.612,16.197,5.101,23.675c3.744,8.023,9.89,12.207,16.706,12.207
			c4.449,0,9.184-1.784,13.72-5.447c5.434-4.389,9.74-9.745,13.35-15.657c14.131-23.138,23.432-48.185,29.405-74.552
			c0.471-2.074,0.385-4.365,1.914-6.688c1.953,17.143,4.9,33.581,9.169,49.759c3.337,12.647,7.162,25.139,14.901,35.963
			c5.333,7.461,11.229,11.173,17.792,11.173c4.553,0,9.428-1.788,14.656-5.351c7.984-5.439,13.168-13.234,17.551-21.556
			c7.632-14.491,12.129-30.098,15.583-46.023c6.733-31.036,9.145-62.564,10.085-94.201c0.659-22.153,0.777-44.336-1.24-66.457
			C233.284,788.792,233.833,786.985,232.124,786.985L232.124,786.985z"/>
	</g>
	<g>
		<path fill="#B1B392" d="M150.014,312.525c0.413,2.973,0.834,6.095,1.233,9.206c0.288,2.251,0.589,4.55,0.909,6.891
			c-0.082-0.206-0.178-0.45-0.289-0.744l-2.003-5.287C150.125,319.382,150.221,315.989,150.014,312.525 M234.639,196.066
			c-0.041,0-0.083,0.001-0.127,0.005c-1.143,0.084-1.048,1.191-1.027,2.037c0.041,1.601,0.096,3.204,0.227,4.799
			c0.63,7.726,1.516,15.44,1.891,23.178c0.966,19.934,1.096,39.872,0.451,59.834c-0.646,19.968-2.309,39.808-5.561,59.506
			c-2.799,16.949-6.953,33.507-15.365,48.698c-3.813,6.884-8.476,13.005-15.616,16.803c-3.155,1.678-6.056,2.517-8.775,2.517
			c-4.445,0-8.405-2.241-12.191-6.719c-6.111-7.226-9.596-15.774-12.31-24.611c-6.09-19.825-9.385-40.234-12.011-60.763
			c-0.671-5.246-1.404-10.484-2.15-15.72c-0.206-1.439-0.927-2.732-2.481-2.816c-0.049-0.003-0.097-0.004-0.145-0.004
			c-1.477,0-2.203,1.271-2.608,2.572c-0.25,0.802-0.445,1.714-0.321,2.524c1.26,8.275,0.421,16.471-0.999,24.616
			c-4.302,24.68-11.96,48.226-24.217,70.157c-3.078,5.509-6.892,10.516-11.714,14.652c-3.52,3.019-7.241,4.49-10.766,4.49
			c-5.079,0-9.75-3.055-12.818-8.936c-1.659-3.18-2.753-6.582-3.487-10.092c-2.617-12.533-2.522-25.161-1.639-37.87
			c1.568-22.572,5.663-44.644,12.347-66.249c2.958-9.559,6.909-18.697,11.428-27.613c0.677-1.336,1.599-3.308-0.242-4.319
			c-0.416-0.228-0.802-0.327-1.162-0.327c-1.281,0-2.23,1.253-2.986,2.38c-2.342,3.492-4.188,7.271-5.7,11.169
			c-13.224,34.099-18.751,69.513-17.602,105.982c0.279,8.861,1.461,17.711,5.102,25.952c3.708,8.393,9.589,12.72,16.102,12.72
			c4.682,0,9.69-2.237,14.451-6.807c4.486-4.307,8.163-9.225,11.155-14.639c10.076-18.228,17.129-37.604,21.759-57.884
			c1.162-5.088,2.208-10.203,3.532-16.349c0.543,1.435,0.733,1.758,0.786,2.101c2.828,18.412,7.107,36.468,13.36,54.03
			c2.907,8.163,6.681,15.887,12.187,22.666c4.61,5.676,9.64,8.506,15.12,8.506c3.846,0,7.914-1.394,12.214-4.175
			c3.666-2.371,6.768-5.304,9.417-8.757c8.573-11.175,13.21-24.13,16.763-37.52c7.407-27.919,9.288-56.532,10.195-85.229
			c0.674-21.315-0.092-42.618-1.456-63.89c-0.401-6.251-0.597-12.548-1.899-18.721C235.582,197.166,235.705,196.066,234.639,196.066
			L234.639,196.066z"/>
	</g>
	<g>
		<path fill="#B1B392" d="M585.556,290.604c-0.934,0-1.876,0.063-2.823,0.19c-8.896,1.2-16.798,4.875-23.396,10.935
			c-14.938,13.72-22.914,31.176-26.271,50.861c-1.379,8.088-2.24,16.171-4.646,24.15c-5.395,17.906-8.165,36.245-5.004,55.007
			c1.27,7.536,3.612,14.759,9.502,19.959c4.272,3.771,8.825,5.247,13.507,5.247c4.329,0,8.768-1.263,13.194-3.143
			c13.877-5.892,23.351-16.689,30.992-29.121c15.752-25.622,22.227-53.897,23.072-83.66c0.123-11.457-1.135-22.643-5.556-33.304
			C603.737,297.136,595.083,290.604,585.556,290.604L585.556,290.604z M534.809,357.949c1.702-17.555,7.668-33.421,18.86-47.183
			c6.625-8.146,14.608-14.204,25.002-16.696c1.896-0.455,3.709-0.679,5.442-0.679c6.156,0,11.286,2.838,15.364,8.281
			c5.557,7.418,7.911,16.153,8.784,25.151c3.162,32.577-3.092,63.458-18.096,92.447c-6.092,11.768-13.887,22.401-25.536,29.545
			c-5.229,3.208-10.88,5.435-16.96,5.758c-0.373,0.02-0.741,0.03-1.105,0.03c-7.144,0-12.478-3.781-16.19-9.974
			c-2.958-4.934-4.28-10.397-5.224-16.035c-2.219-13.245,1.087-40.495,6.823-53.387c0.827,5.787,1.823,11.125,3.617,16.259
			c0.306,0.875,0.409,2.452,1.518,2.452c0.174,0,0.372-0.039,0.6-0.125c1.103-0.418,0.37-1.953,0.091-3.002
			c-0.889-3.324-1.81-6.64-2.625-9.981c-2.053-8.409-0.328-16.087,3.491-23.83c7.308-14.813,15.784-28.688,28.019-39.975
			c2.527-2.33,5.32-4.372,7.984-6.551c1.386-1.133,2.884-2.456,1.429-4.283c-0.433-0.543-0.863-0.746-1.287-0.746
			c-0.889,0-1.747,0.893-2.523,1.423c-12.85,8.766-21.745,20.902-29.016,34.365C540.301,346.71,537.62,352.365,534.809,357.949
			L534.809,357.949z"/>
	</g>
	<g>
		<path fill="#B1B392" d="M509.835,310.254c-0.513,0-0.956,0.59-1.331,0.997c-7.667,8.318-17.597,13.34-27.278,18.71
			c-17.558,9.739-36.007,17.725-53.685,27.226c-15.838,8.513-31.364,17.557-46.043,27.974c-1.496,1.061-4.214,2.406-2.724,4.463
			c0.465,0.643,0.949,0.888,1.437,0.888c1.203,0,2.432-1.492,3.467-2.218c15.225-10.668,30.444-21.343,46.944-30.013
			c1.408-0.74,2.396-1.152,3.127-1.152c1.203,0,1.713,1.117,2.257,3.728c1.031,4.949,1.48,9.984,1.56,15.032
			c0.181,11.7,0.088,23.396-0.601,35.083c-0.651,11.055-1.03,22.128-1.806,33.175c-1.32,18.776-2.858,37.537-4.236,55.403
			c0,2.755-0.055,4.604,0.021,6.448c0.045,1.059,0.65,1.882,1.696,2.191c0.185,0.054,0.355,0.079,0.517,0.079
			c0.858,0,1.414-0.702,1.927-1.349c1.317-1.66,1.244-3.735,1.363-5.654c0.907-14.372,1.716-28.749,2.542-43.125
			c0.629-10.932,1.373-21.861,1.824-32.801c0.664-16.113,1.194-32.249,0.074-48.351c-0.483-6.943-0.67-14.059-3.874-20.544
			c-0.626-1.266,0.263-1.722,1.212-2.194c3.414-1.7,6.813-3.428,10.209-5.165c16.652-8.519,33.771-16.159,49.548-26.323
			c4.36-2.809,8.544-5.835,11.964-9.787c0.563-0.651,1.295-1.47,0.635-2.277C510.318,310.378,510.069,310.254,509.835,310.254
			L509.835,310.254z"/>
	</g>
	<g>
		<path fill="#B1B392" d="M682.857,358.531c-0.307,1.318-0.513,2.633-0.71,3.9c-0.149,0.957-0.291,1.86-0.47,2.74
			c-0.118,0.585-0.227,1.172-0.326,1.759c-0.124-1.433-0.304-2.9-0.568-4.412l-0.273-1.558c0.255-0.576,0.401-1.154,0.483-1.697
			L682.857,358.531 M701.396,332.029c-0.299,0-0.598,0.023-0.873,0.056c-3.624,0.429-6.398,2.368-8.543,5.257
			c-3.335,4.49-5.709,9.46-7.483,14.751c-0.384,1.146-0.302,2.689-2.039,3.372c-0.292-4.733-0.544-9.239-0.863-13.741
			c-0.092-1.297,0.396-3.233-1.6-3.233c-0.088,0-0.181,0.004-0.278,0.012c-2.059,0.162-2.187,1.894-2.114,3.642
			c0.211,5.04,0.318,10.085,0.478,15.126c0.044,1.382,0.015,2.689-1.269,3.641c-4.747,3.516-9.389,7.209-14.912,9.477
			c-1.387,0.569-2.525,0.872-3.511,0.872c-1.925,0-3.27-1.154-4.756-3.731c-1.346-2.334-2.269-4.909-3.539-7.292
			c-0.853-1.599-2.043-2.401-3.319-2.401c-1.064,0-2.189,0.558-3.228,1.678c-1.03,1.111-1.5,2.506-2.008,3.904
			c-1.432,3.927-2.87,7.855-4.44,11.728c-0.879,2.168-2.048,4.221-4.034,5.629c-1.439,1.021-2.627,1.541-3.62,1.541
			c-1.559,0-2.638-1.283-3.462-3.921c-1.391-4.453-0.234-8.754,0.729-13.086c0.285-1.279,1.421-3.106-0.896-3.634
			c-0.241-0.055-0.464-0.081-0.671-0.081c-1.546,0-2.196,1.43-2.582,2.849c-1.292,4.739-1.275,9.512,0.148,14.206
			c1.236,4.071,3.588,6.18,6.459,6.18c1.825,0,3.862-0.854,5.954-2.6c1.64-1.369,2.806-3.135,3.669-5.039
			c1.522-3.356,2.866-6.794,4.312-10.188c0.753-1.768,1.009-4.3,3.255-4.522c0.109-0.011,0.215-0.016,0.315-0.016
			c2.271,0,2.304,2.673,3.082,4.211c2.453,4.855,4.573,7.046,7.785,7.046c1.854,0,4.072-0.73,6.929-2.1
			c4.672-2.239,8.658-5.534,13.359-8.585c0.972,5.539,0.726,10.592,0.964,15.617c0.063,1.333,0.167,2.836,1.918,2.836
			c0.055,0,0.111-0.001,0.17-0.004c1.732-0.09,1.979-1.47,2.136-2.923c0.463-4.275,0.75-8.594,1.603-12.794
			c1.003-4.938,0.87-10.354,5.567-13.973c2.219-1.708,3.979-4.017,5.899-6.097c0.551-0.595,1.444-1.347,0.628-2.201
			c-0.307-0.321-0.578-0.444-0.826-0.444c-0.603,0-1.068,0.731-1.572,1.144c-1.393,1.138-2.095,3.238-4.788,3.497
			c1.413-4.575,3.066-8.462,6.475-11.328c1.326-1.114,2.822-2.052,4.64-2.052c0.119,0,0.24,0.004,0.362,0.012
			c0.558,0.038,1.3,0.45,1.851,0.45c0.408,0,0.711-0.227,0.753-1.002C703.682,332.362,702.532,332.029,701.396,332.029
			L701.396,332.029z M689.188,349.302c-0.027-0.199-0.082-0.4-0.065-0.596c0.007-0.084,0.16-0.156,0.246-0.234
			c0.089,0.184,0.179,0.368,0.269,0.551C689.485,349.116,689.336,349.209,689.188,349.302L689.188,349.302z"/>
	</g>
	<g>
		<path fill="#B1B392" d="M506.638,413.428c-0.479,0-0.933,0.484-1.361,0.819c-10.289,8.046-22.192,13.088-33.99,18.343
			c-0.679,0.303-1.244,0.475-1.739,0.475c-0.821,0-1.451-0.474-2.095-1.613c-1.07-1.894-2.621-2.663-4.379-2.663
			c-0.858,0-1.767,0.183-2.692,0.509c-1.337,0.471-2.545,1.305-4.251,2.208c0.137-2.428,1.552-3.437,2.288-4.804
			c0.423-0.786,0.881-1.591,0.209-2.378c-0.366-0.429-0.77-0.588-1.188-0.588c-0.489,0-0.999,0.217-1.495,0.474
			c-1.242,0.643-2.112,1.651-2.885,2.791c-3.11,4.59-4.591,9.703-5.272,15.168c-0.473,3.791-0.19,7.372,1.604,10.738
			c1.278,2.398,3.123,3.617,5.599,3.617c0.561,0,1.154-0.063,1.78-0.188c7.042-1.413,12.878-8.832,12.776-17.342
			c-0.033-2.77,1.039-3.586,3.092-4.454c7.941-3.355,15.603-7.297,23.204-11.349c3.802-2.027,7.478-4.281,10.757-7.105
			c0.619-0.533,1.512-1.192,0.823-2.146C507.154,413.565,506.893,413.428,506.638,413.428L506.638,413.428z M460.731,436.374
			c-1.349-0.022-2.267,0.04-2.756-0.854c-0.623-1.135,0.226-1.87,0.925-2.488c0.72-0.633,1.565-1.18,2.444-1.562
			c0.535-0.232,1.041-0.338,1.511-0.338c1.404,0,2.474,0.949,2.954,2.297c0.796,2.231-1.634,1.789-2.735,2.333
			C462.228,436.182,461.21,436.257,460.731,436.374L460.731,436.374z M455.742,454.059c-2.013,0-3.317-1.217-3.861-3.814
			c-1.182-5.649,0.006-11.022,2.636-16.486c1.561,3.662,2.759,5.215,5.114,5.215c1.208,0,2.72-0.409,4.741-1.151
			c0.717-0.263,1.265-0.39,1.677-0.39c1.101,0,1.229,0.902,1.003,2.508c-0.831,5.904-2.332,11.403-8.813,13.636
			C457.313,453.895,456.48,454.059,455.742,454.059L455.742,454.059z"/>
	</g>
	<g>
		<path fill="#B1B392" d="M545.788,751.369c-0.396,0-0.729,0.322-0.95,0.752c-1.376,2.672-2.084,5.499-1.807,8.514
			c0.054,0.576,0.262,1.26,0.998,1.394c0.073,0.013,0.142,0.02,0.207,0.02c0.619,0,0.926-0.551,1.152-1.025
			c0.968-2.018,1.496-4.157,1.592-6.476c-0.116-0.976,0.446-2.213-0.667-2.992C546.13,751.426,545.953,751.369,545.788,751.369
			L545.788,751.369z"/>
	</g>
</g>
</svg>
